<svg width="20" height="22" viewBox="0 0 20 22" fill="none" xmlns="http://www.w3.org/2000/svg">
<path d="M11.145 0.455572C10.8356 0.163011 10.4259 0 10 0C9.57417 0 9.16447 0.163011 8.85502 0.455572L0.78167 8.08559C0.534472 8.31951 0.337638 8.60144 0.203228 8.91411C0.0688186 9.22678 -0.000335954 9.56359 1.22709e-06 9.90393V19.1873C0.000443063 19.85 0.264031 20.4855 0.732825 20.954C1.20162 21.4225 1.83725 21.6856 2.50001 21.6856H5.00001C5.66306 21.6856 6.29894 21.4222 6.76778 20.9534C7.23663 20.4845 7.50002 19.8487 7.50002 19.1856V15.0189C7.50002 14.7979 7.58782 14.586 7.7441 14.4297C7.90038 14.2734 8.11234 14.1856 8.33335 14.1856H11.6667C11.8877 14.1856 12.0997 14.2734 12.256 14.4297C12.4122 14.586 12.5 14.7979 12.5 15.0189V19.1856C12.5 19.8487 12.7634 20.4845 13.2323 20.9534C13.7011 21.4222 14.337 21.6856 15 21.6856H17.5C18.1631 21.6856 18.799 21.4222 19.2678 20.9534C19.7367 20.4845 20 19.8487 20 19.1856V9.90226C19.9999 9.56209 19.9304 9.22551 19.7957 8.91314C19.661 8.60077 19.464 8.31917 19.2167 8.08559L11.145 0.452239V0.455572Z" fill="#BEDE61"/>
</svg>
